<svg width="12" height="14" viewBox="0 0 12 14" fill="none" xmlns="http://www.w3.org/2000/svg">
<path fill-rule="evenodd" clip-rule="evenodd" d="M4.43772 1.60843C4.43772 0.745604 5.13718 0.0461426 6.00001 0.0461426C6.86284 0.0461426 7.5623 0.745604 7.5623 1.60843C7.5623 2.19946 7.23411 2.71384 6.75002 2.97926V4.05454C8.05374 4.16913 9.2485 4.58724 10.1699 5.31333C11.2785 6.18685 11.9582 7.48221 11.9582 9.12299V9.48719H10.5191C9.9749 9.48719 9.4669 9.75953 9.1657 10.2127L8.87221 10.6543C8.80271 10.7588 8.68547 10.8217 8.55991 10.8217H3.44011C3.31454 10.8217 3.19731 10.7588 3.1278 10.6543L2.8343 10.2127C2.5331 9.75953 2.02509 9.48719 1.48096 9.48719H0.047729C0.045749 9.48719 0.0437791 9.4872 0.0418091 9.48722V9.12299C0.0418091 7.48221 0.721559 6.18685 1.83012 5.31333C2.75158 4.58724 3.9463 4.16913 5.25002 4.05454V2.97927C4.76593 2.71385 4.43772 2.19947 4.43772 1.60843ZM0.0418091 10.7372V12.4537C0.0418091 13.2822 0.713379 13.9537 1.54181 13.9537H10.4582C11.2867 13.9537 11.9582 13.2822 11.9582 12.4537V10.7372H10.5191C10.3935 10.7372 10.2762 10.8 10.2067 10.9046L9.9132 11.3462C9.612 11.7994 9.104 12.0717 8.55991 12.0717H3.44011C2.89598 12.0717 2.38797 11.7994 2.08677 11.3462L1.79327 10.9046C1.72376 10.8 1.60653 10.7372 1.48096 10.7372H0.047729C0.045749 10.7372 0.0437791 10.7372 0.0418091 10.7372ZM4.3817 7.00306C4.3817 6.65788 4.10188 6.37806 3.7567 6.37806C3.41152 6.37806 3.1317 6.65788 3.1317 7.00306V7.65112C3.1317 7.9963 3.41152 8.27612 3.7567 8.27612C4.10188 8.27612 4.3817 7.9963 4.3817 7.65112V7.00306ZM8.25728 6.37806C8.60246 6.37806 8.88228 6.65788 8.88228 7.00306V7.65112C8.88228 7.9963 8.60246 8.27612 8.25728 8.27612C7.9121 8.27612 7.63228 7.9963 7.63228 7.65112V7.00306C7.63228 6.65788 7.9121 6.37806 8.25728 6.37806Z" fill="#eab206"/>
</svg>
